<svg width="20" height="20" viewBox="0 0 20 20" fill="none" xmlns="http://www.w3.org/2000/svg">
<path d="M17.4114 1.17651H15.6467V2.94122C15.6467 3.29416 15.3526 3.52945 15.0585 3.52945C14.7644 3.52945 14.4702 3.29416 14.4702 2.94122V1.17651H5.05848V2.94122C5.05848 3.29416 4.76436 3.52945 4.47024 3.52945C4.17613 3.52945 3.88201 3.29416 3.88201 2.94122V1.17651H2.1173C1.23495 1.17651 0.587891 1.94122 0.587891 2.94122V5.05887H19.4114V2.94122C19.4114 1.94122 18.3526 1.17651 17.4114 1.17651ZM0.587891 6.29416V17.0589C0.587891 18.1177 1.23495 18.8236 2.17613 18.8236H17.4702C18.4114 18.8236 19.4702 18.0589 19.4702 17.0589V6.29416H0.587891ZM5.82318 16.1765H4.41142C4.17613 16.1765 3.94083 16 3.94083 15.7059V14.2353C3.94083 14 4.1173 13.7647 4.41142 13.7647H5.88201C6.1173 13.7647 6.3526 13.9412 6.3526 14.2353V15.7059C6.29377 16 6.1173 16.1765 5.82318 16.1765ZM5.82318 10.8824H4.41142C4.17613 10.8824 3.94083 10.7059 3.94083 10.4118V8.94122C3.94083 8.70592 4.1173 8.47063 4.41142 8.47063H5.88201C6.1173 8.47063 6.3526 8.6471 6.3526 8.94122V10.4118C6.29377 10.7059 6.1173 10.8824 5.82318 10.8824ZM10.5291 16.1765H9.05848C8.82318 16.1765 8.58789 16 8.58789 15.7059V14.2353C8.58789 14 8.76436 13.7647 9.05848 13.7647H10.5291C10.7644 13.7647 10.9997 13.9412 10.9997 14.2353V15.7059C10.9997 16 10.8232 16.1765 10.5291 16.1765ZM10.5291 10.8824H9.05848C8.82318 10.8824 8.58789 10.7059 8.58789 10.4118V8.94122C8.58789 8.70592 8.76436 8.47063 9.05848 8.47063H10.5291C10.7644 8.47063 10.9997 8.6471 10.9997 8.94122V10.4118C10.9997 10.7059 10.8232 10.8824 10.5291 10.8824ZM15.235 16.1765H13.7644C13.5291 16.1765 13.2938 16 13.2938 15.7059V14.2353C13.2938 14 13.4702 13.7647 13.7644 13.7647H15.235C15.4702 13.7647 15.7055 13.9412 15.7055 14.2353V15.7059C15.7055 16 15.5291 16.1765 15.235 16.1765ZM15.235 10.8824H13.7644C13.5291 10.8824 13.2938 10.7059 13.2938 10.4118V8.94122C13.2938 8.70592 13.4702 8.47063 13.7644 8.47063H15.235C15.4702 8.47063 15.7055 8.6471 15.7055 8.94122V10.4118C15.7055 10.7059 15.5291 10.8824 15.235 10.8824Z" fill="#191A1C"/>
</svg>
