<svg width="21" height="21" viewBox="0 0 21 21" fill="none" xmlns="http://www.w3.org/2000/svg">
<path d="M15.5658 1.211C13.7003 1.211 12.188 2.72328 12.188 4.58878C12.188 4.90714 12.2321 5.21523 12.3144 5.50725L7.83232 8.12289C7.22018 7.50491 6.37103 7.12211 5.43247 7.12211C3.56697 7.12211 2.05469 8.63439 2.05469 10.4999C2.05469 12.3653 3.56697 13.8777 5.43247 13.8777C6.37121 13.8777 7.22051 13.4947 7.83267 12.8765L12.3154 15.4888C12.2324 15.7819 12.188 16.0913 12.188 16.411C12.188 18.2765 13.7003 19.7888 15.5658 19.7888C17.4313 19.7888 18.9436 18.2765 18.9436 16.411C18.9436 14.5455 17.4313 13.0332 15.5658 13.0332C14.6286 13.0332 13.7806 13.4149 13.1687 14.0313L8.684 11.4179C8.76625 11.126 8.81024 10.8181 8.81024 10.4999C8.81024 10.1815 8.7662 9.87339 8.68386 9.58139L13.166 6.96576C13.7781 7.58375 14.6272 7.96655 15.5658 7.96655C17.4313 7.96655 18.9436 6.45427 18.9436 4.58878C18.9436 2.72328 17.4313 1.211 15.5658 1.211Z" fill="#F9FFFC"/>
</svg>
