<svg width="30" height="30" viewBox="0 0 30 30" fill="none" xmlns="http://www.w3.org/2000/svg">
<path d="M6.25021 14.9999C6.24877 14.7516 6.32129 14.5085 6.45854 14.3016C6.5958 14.0947 6.79155 13.9334 7.02086 13.8382C7.25016 13.743 7.50263 13.7182 7.74606 13.7671C7.98949 13.8159 8.21287 13.9361 8.38771 14.1124L15.0002 20.7374L21.6127 14.1124C21.8518 13.9076 22.1594 13.8006 22.474 13.8128C22.7886 13.8249 23.087 13.9553 23.3097 14.178C23.5323 14.4006 23.6627 14.699 23.6748 15.0136C23.687 15.3282 23.58 15.6358 23.3752 15.8749L15.8752 23.3749C15.641 23.6077 15.3242 23.7384 14.994 23.7384C14.6637 23.7384 14.3469 23.6077 14.1127 23.3749L6.61271 15.8749C6.38178 15.6421 6.25159 15.3278 6.25021 14.9999Z" fill="white"/>
<path d="M6.25074 7.49998C6.2493 7.25169 6.32183 7.00861 6.45908 6.80171C6.59633 6.59481 6.79209 6.43347 7.02139 6.33826C7.2507 6.24305 7.50316 6.21829 7.74659 6.26713C7.99003 6.31596 8.2134 6.43619 8.38824 6.61248L15.0007 13.2375L21.6132 6.61248C21.8486 6.3771 22.1679 6.24486 22.5007 6.24486C22.8336 6.24486 23.1529 6.3771 23.3882 6.61248C23.6236 6.84786 23.7559 7.1671 23.7559 7.49998C23.7559 7.83285 23.6236 8.1521 23.3882 8.38748L15.8882 15.8875C15.654 16.1203 15.3372 16.251 15.007 16.251C14.6768 16.251 14.3599 16.1203 14.1257 15.8875L6.62574 8.38748C6.50763 8.27171 6.41367 8.13365 6.3493 7.98131C6.28493 7.82896 6.25143 7.66536 6.25074 7.49998Z" fill="white"/>
</svg>
