<svg width="94" height="78" viewBox="0 0 94 78" fill="none" xmlns="http://www.w3.org/2000/svg">
<path d="M38.75 0.499989L24.25 56L20.25 37.25C26.0833 37.25 30.9167 39.0833 34.75 42.75C38.5833 46.4167 40.5 51.3333 40.5 57.5C40.5 63.6667 38.5833 68.6667 34.75 72.5C30.9167 76.1667 26.1667 78 20.5 78C14.5 78 9.58333 76.0833 5.75 72.25C1.91667 68.4167 7.07805e-07 63.5 7.07805e-07 57.5C7.07805e-07 55.5 0.0833339 53.6667 0.25 52C0.583334 50.1667 1.16667 48 2 45.5C2.83333 43 4 39.8333 5.5 36L18.75 0.499989H38.75ZM91.75 0.499989L77.25 56L73.25 37.25C79.0833 37.25 83.9167 39.0833 87.75 42.75C91.5833 46.4167 93.5 51.3333 93.5 57.5C93.5 63.6667 91.5833 68.6667 87.75 72.5C83.9167 76.1667 79.1667 78 73.5 78C67.5 78 62.5833 76.0833 58.75 72.25C54.9167 68.4167 53 63.5 53 57.5C53 55.5 53.0833 53.6667 53.25 52C53.5833 50.1667 54.1667 48 55 45.5C55.8333 43 57 39.8333 58.5 36L71.75 0.499989H91.75Z" fill="#BE1E2D" fill-opacity="0.1"/>
</svg>
