<svg width="18" height="18" viewBox="0 0 18 18" fill="none" xmlns="http://www.w3.org/2000/svg">
<path fill-rule="evenodd" clip-rule="evenodd" d="M8.70078 3.45078C5.80129 3.45078 3.45078 5.80129 3.45078 8.70078C3.45078 11.6003 5.80129 13.9508 8.70078 13.9508C11.6003 13.9508 13.9508 11.6003 13.9508 8.70078C13.9508 5.80129 11.6003 3.45078 8.70078 3.45078ZM2.55078 8.70078C2.55078 5.30423 5.30423 2.55078 8.70078 2.55078C12.0973 2.55078 14.8508 5.30423 14.8508 8.70078C14.8508 10.2371 14.2875 11.6418 13.3561 12.7197L15.319 14.6826C15.4947 14.8583 15.4947 15.1432 15.319 15.319C15.1432 15.4947 14.8583 15.4947 14.6826 15.319L12.7197 13.3561C11.6418 14.2875 10.2371 14.8508 8.70078 14.8508C5.30423 14.8508 2.55078 12.0973 2.55078 8.70078Z" fill="#003532"/>
</svg>
