<svg width="46" height="46" viewBox="0 0 46 46" fill="none" xmlns="http://www.w3.org/2000/svg">
<circle cx="23" cy="23" r="23" fill="#BE1E2D"/>
<g clip-path="url(#clip0_1154_793)">
<path d="M32.9935 33L32.9983 32.9992V26.031C32.9983 22.6221 32.2644 19.9961 28.2792 19.9961C26.3633 19.9961 25.0777 21.0474 24.5528 22.0441H24.4974V20.3143H20.7188V32.9992H24.6533V26.7181C24.6533 25.0643 24.9668 23.4652 27.0149 23.4652C29.0328 23.4652 29.0629 25.3525 29.0629 26.8242V33H32.9935Z" fill="white"/>
<path d="M14.3145 20.3145H18.2538V32.9993H14.3145V20.3145Z" fill="white"/>
<path d="M16.2816 14C15.022 14 14 15.022 14 16.2816C14 17.5411 15.022 18.5845 16.2816 18.5845C17.5411 18.5845 18.5632 17.5411 18.5632 16.2816C18.5624 15.022 17.5403 14 16.2816 14Z" fill="white"/>
</g>
<defs>
<clipPath id="clip0_1154_793">
<rect width="19" height="19" fill="white" transform="translate(14 14)"/>
</clipPath>
</defs>
</svg>
