<svg width="32" height="32" viewBox="0 0 32 32" fill="none" xmlns="http://www.w3.org/2000/svg">
<g opacity="0.2">
<path d="M25.4019 19.2408C26.0586 20.8981 27.0967 22.5387 28.4868 24.1178C28.9292 24.6202 28.9854 25.3375 28.6265 25.9025C28.3501 26.337 27.8853 26.5846 27.3931 26.5846C27.2544 26.5846 27.1133 26.5651 26.9741 26.5245C24.0278 25.6637 17.1553 22.6061 16.9707 12.8326C16.8994 9.05871 19.6597 5.81653 23.2539 5.45129C25.2349 5.25304 27.2168 5.8966 28.6855 7.22424C30.1562 8.55334 31 10.4508 31 12.4308C31 15.734 28.6553 18.6227 25.4019 19.2408ZM27.3447 8.70812C26.4106 7.86388 25.2349 7.41417 23.9883 7.41417C23.812 7.41417 23.6343 7.42296 23.456 7.44151C20.8892 7.70176 18.9189 10.0533 18.9707 12.7945C19.0981 19.5572 22.7598 22.6017 25.792 23.9635C24.8325 22.6656 24.0786 21.3307 23.5425 19.9777C23.3335 19.4508 23.3682 18.8619 23.6372 18.3619C23.9189 17.8375 24.4214 17.4655 25.0146 17.3409C27.3242 16.858 29 14.7926 29 12.4308C29 11.0157 28.3965 9.65881 27.3447 8.70812Z" fill="#191716"/>
<path d="M12.6563 25.9025C12.3799 26.337 11.9151 26.5846 11.4229 26.5846C11.2842 26.5846 11.1436 26.5651 11.0039 26.5245C8.05762 25.6637 1.18555 22.6061 1.00098 12.8326C0.930675 9.05871 3.69043 5.81651 7.28516 5.45128C9.26856 5.24962 11.2471 5.89611 12.7158 7.22424C14.1865 8.55334 15.0303 10.4508 15.0303 12.4308C15.0303 15.734 12.6855 18.6227 9.43261 19.2408C10.0898 20.8995 11.1279 22.5402 12.5176 24.1183C12.96 24.6212 13.0156 25.338 12.6563 25.9025ZM7.57326 19.9786C7.36428 19.4518 7.39846 18.8629 7.66701 18.3629C7.94924 17.838 8.45119 17.4659 9.04494 17.3409C11.3545 16.858 13.0303 14.7926 13.0303 12.4308C13.0303 11.0152 12.4268 9.65881 11.375 8.70812C10.4414 7.86388 9.26564 7.41417 8.01857 7.41417C7.84279 7.41417 7.66505 7.42296 7.48634 7.44151C4.91993 7.70176 2.94923 10.0533 3.00099 12.7945C3.12794 19.5577 6.79005 22.6017 9.82228 23.9635C8.86329 22.6666 8.11036 21.3317 7.57326 19.9786Z" fill="#191716"/>
</g>
</svg>
