<svg width="60" height="60" viewBox="0 0 60 60" fill="none" xmlns="http://www.w3.org/2000/svg">
<g clip-path="url(#clip0_351_464)">
<path d="M42.4219 0H17.5781C7.87031 0 0 7.87031 0 17.5781V42.4219C0 52.1297 7.87031 60 17.5781 60H42.4219C52.1297 60 60 52.1297 60 42.4219V17.5781C60 7.87031 52.1297 0 42.4219 0ZM51.6797 42.0457C51.6797 45.7863 48.6469 48.8203 44.9051 48.8203H15.0949C11.3531 48.8203 8.32031 45.7863 8.32031 42.0457V17.9543C8.32031 14.1949 11.3812 11.1551 15.1406 11.1797L24.2531 11.2406C25.1426 11.2465 25.9945 11.6016 26.6238 12.2309L30.0527 15.6539C30.6879 16.2879 31.548 16.6441 32.4457 16.6441H44.9051C48.6469 16.6441 51.6797 19.677 51.6797 23.4187V42.0457ZM39.3387 36.2953C38.6871 34.2598 36.4758 33.1734 34.4648 33.9C33.2812 34.3289 31.793 34.6535 30 34.6535C28.207 34.6535 26.7188 34.3289 25.5352 33.9C23.5242 33.1734 21.3129 34.2598 20.6613 36.2953L18.9176 41.7352C18.4301 43.2563 19.5656 44.8113 21.1629 44.8113H38.8371C40.4344 44.8113 41.5699 43.2563 41.0824 41.7352L39.3387 36.2953ZM30 32.4609C33.2543 32.4609 35.8922 29.8219 35.8922 26.5676C35.8922 23.3133 33.2543 20.6754 30 20.6754C26.7457 20.6754 24.1078 23.3133 24.1078 26.5676C24.1078 29.8219 26.7457 32.4609 30 32.4609Z" fill="white"/>
</g>
<defs>
<clipPath id="clip0_351_464">
<rect width="60" height="60" fill="white"/>
</clipPath>
</defs>
</svg>
