<svg width="60" height="60" viewBox="0 0 60 60" fill="none" xmlns="http://www.w3.org/2000/svg">
<path fill-rule="evenodd" clip-rule="evenodd" d="M26.5676 51.8011H57.9484C58.2711 51.8011 58.5343 52.0643 58.5343 52.3871V57.0216C58.5343 57.3443 58.2711 57.6075 57.9484 57.6075H26.5676C26.2448 57.6075 25.9816 57.3443 25.9816 57.0216V52.3871C25.9816 52.0643 26.2448 51.8011 26.5676 51.8011ZM16.5231 42.5998L22.7666 53.4139C24.0659 55.6641 22.4265 58.4279 19.8741 58.4279H4.81606C2.2868 58.4279 0.612073 55.6886 1.92352 53.417C4.00594 49.8102 6.08496 46.2059 8.16703 42.5998C8.32571 42.3251 8.39285 42.0656 8.39285 41.7488V35.2886C7.66606 35.0216 7.17739 34.3274 7.17739 33.5492V32.5114C7.17739 31.4902 8.00848 30.6591 9.02965 30.6591H15.6608C16.682 30.6591 17.5131 31.4902 17.5131 32.5114V33.5492C17.5131 34.3273 17.0244 35.0216 16.2976 35.2886V41.7488C16.2974 42.0657 16.3644 42.3251 16.5231 42.5998ZM17.9297 48.3095L15.1068 43.4201C14.8039 42.8957 14.6566 42.3548 14.6566 41.7488V35.4015H10.0334V41.7488C10.0334 42.3545 9.88606 42.8958 9.58325 43.4201L7.18266 47.5779C11.1157 46.5727 12.9028 50.1516 17.9297 48.3095ZM24.8583 42.4943H41.7507C42.0735 42.4943 42.3367 42.7575 42.3367 43.0803V46.4218C42.3367 46.7445 42.0735 47.0077 41.7507 47.0077H24.8583C24.5355 47.0077 24.2723 46.7445 24.2723 46.4218V43.0803C24.2723 42.7575 24.5355 42.4943 24.8583 42.4943ZM44.4551 12.4822C46.781 12.4822 48.6666 14.3677 48.6666 16.6936C48.6666 19.0196 46.781 20.9051 44.4551 20.9051C42.1291 20.9051 40.2436 19.0196 40.2436 16.6936C40.2436 14.3677 42.1291 12.4822 44.4551 12.4822ZM44.4551 15.395C43.7379 15.395 43.1565 15.9763 43.1565 16.6935C43.1565 17.4107 43.7379 17.9921 44.4551 17.9921C45.1723 17.9921 45.7536 17.4107 45.7536 16.6935C45.7536 15.9763 45.1723 15.395 44.4551 15.395ZM55.3445 50.1606C61.5394 38.6166 57.0548 27.9535 49.5179 19.6299C48.6649 21.0975 47.1921 22.1601 45.458 22.4596C50.1233 33.4769 49.4367 42.3228 43.3479 50.1606H55.3445ZM37.5274 48.6483V50.1605H29.0816V48.6483H37.5274ZM41.5173 6.057C41.2378 5.89563 40.8783 5.99196 40.7169 6.27145L31.8797 21.578C31.7183 21.8575 31.8147 22.217 32.0941 22.3784L38.3958 26.0167C38.6753 26.1781 39.0348 26.0818 39.1962 25.8023L41.5287 21.7624C39.7798 20.7504 38.6031 18.8595 38.6031 16.6936C38.6031 13.4616 41.2232 10.8416 44.4551 10.8416C45.5213 10.8416 46.5206 11.1269 47.3815 11.6249L48.0334 10.4958C48.1948 10.2163 48.0984 9.8568 47.8189 9.69544L41.5173 6.057ZM45.9318 1.65051L49.4278 3.66895C49.7073 3.83032 49.8036 4.18985 49.6423 4.46934L47.7438 7.75751L43.2328 5.15313L45.1313 1.86485C45.2927 1.58547 45.6523 1.48915 45.9318 1.65051ZM36.6802 26.9205L35.9285 28.2223C35.7672 28.5018 35.4076 28.5981 35.1281 28.4368L31.6321 26.4182C31.3526 26.2568 31.2563 25.8973 31.4176 25.6178L32.1691 24.3161L36.6802 26.9205Z" fill="white"/>
</svg>
