<svg width="64" height="64" viewBox="0 0 64 64" fill="none" xmlns="http://www.w3.org/2000/svg">
<g clip-path="url(#clip0_351_452)">
<path d="M62.7489 16.0443L32.6239 5.41547C32.2202 5.27297 31.7799 5.27297 31.3763 5.41547L1.25125 16.0443C0.502252 16.3086 0.0010015 17.0161 1.49838e-06 17.8103C-0.000998502 18.6046 0.498627 19.3132 1.247 19.5792L31.372 30.2888C31.5751 30.3611 31.7876 30.3972 32 30.3972C32.2125 30.3972 32.4249 30.3611 32.628 30.2888L62.753 19.5792C63.5014 19.3132 64.0009 18.6046 64 17.8103C63.999 17.0161 63.4977 16.3086 62.7489 16.0443Z" fill="#FF9F00"/>
<path d="M59.4971 41.0718V24.7168L55.7471 26.0499V41.0718C54.6176 41.7219 53.8564 42.94 53.8564 44.3369C53.8564 45.7337 54.6176 46.9519 55.7471 47.602V56.8166C55.7471 57.8521 56.5866 58.6916 57.6221 58.6916C58.6576 58.6916 59.4971 57.8521 59.4971 56.8166V47.6022C60.6266 46.9522 61.3877 45.7338 61.3877 44.337C61.3877 42.9402 60.6267 41.7219 59.4971 41.0718Z" fill="#FF9F00"/>
<path d="M32.0002 34.1471C31.3565 34.1471 30.7227 34.0378 30.116 33.8221L13.1807 27.8015V36.0525C13.1807 38.0711 15.2865 39.7783 19.4398 41.1263C23.0599 42.3013 27.5207 42.9484 32.0002 42.9484C36.4797 42.9484 40.9403 42.3013 44.5605 41.1263C48.7138 39.7783 50.8197 38.0711 50.8197 36.0525V27.8015L33.8844 33.8221C33.2777 34.0378 32.6438 34.1471 32.0002 34.1471Z" fill="#FF9F00"/>
</g>
<defs>
<clipPath id="clip0_351_452">
<rect width="64" height="64" fill="white"/>
</clipPath>
</defs>
</svg>
