<svg width="68" height="68" viewBox="0 0 68 68" fill="none" xmlns="http://www.w3.org/2000/svg">
<path fill-rule="evenodd" clip-rule="evenodd" d="M52.326 50.1795H55.9588V51.3022H52.326V50.1795ZM52.326 47.9275H57.5694V49.0501H52.326V47.9275ZM52.326 45.6823H57.5694V46.8049H52.326V45.6823ZM50.0529 41.9031V56.5457H59.8146V41.9031H50.0529ZM38.8409 41.9031V56.5457H48.6026V41.9031H38.8409ZM36.5957 39.6929H62.0877V58.791H52.326C52.3241 59.0893 52.2043 59.3748 51.9927 59.5851C51.7811 59.7955 51.4949 59.9135 51.1965 59.9136H47.4521C47.1592 59.9063 46.8808 59.7848 46.6762 59.5751C46.4717 59.3653 46.3573 59.0839 46.3574 58.791H36.5957V39.6929ZM37.2929 31.3257C40.4127 31.337 43.5138 31.8069 46.4968 32.7202C50.2073 33.6994 53.7056 35.354 56.8164 37.6011H34.5039V53.6382H16.5771C17.7622 53.0303 18.7111 52.0451 19.2743 50.8382C19.8374 49.6312 19.9826 48.2711 19.687 46.9724C19.3969 45.8792 18.7992 44.8921 17.965 44.1283C17.1308 43.3645 16.095 42.856 14.9805 42.6631V42.4819C14.9985 41.6193 15.208 40.7714 15.5939 39.9996C15.9798 39.2279 16.5324 38.5516 17.2118 38.0196C20.5114 35.6501 24.1895 33.8582 28.0891 32.7202C31.0815 31.8484 34.1766 31.3794 37.2929 31.3257ZM5.73111 24.5028C5.90684 24.4447 6.09847 24.4586 6.26388 24.5417C6.4293 24.6248 6.55494 24.7702 6.6132 24.9459L12.9305 44.009C13.5201 43.8741 14.1308 43.8585 14.7266 43.9632C15.3223 44.0679 15.8911 44.2908 16.3994 44.6188C16.9077 44.9467 17.3452 45.3731 17.6861 45.8727C18.0271 46.3724 18.2646 46.9352 18.3847 47.528C18.5047 48.1209 18.5049 48.7318 18.3852 49.3247C18.2655 49.9177 18.0284 50.4806 17.6877 50.9805C17.3471 51.4804 16.9099 51.907 16.4018 52.2353C15.8937 52.5635 15.3251 52.7868 14.7294 52.8919C12.1147 53.5406 10.6713 53.9033 9.56963 49.5105C8.61435 45.6614 9.59752 44.9015 11.6056 44.3368L5.2884 25.3848C5.25955 25.2979 5.24812 25.206 5.25476 25.1146C5.26141 25.0232 5.28599 24.934 5.3271 24.8521C5.36822 24.7702 5.42506 24.6972 5.49439 24.6373C5.56372 24.5774 5.64412 24.5317 5.73111 24.5028ZM37.2929 6.22412C39.4994 6.22412 41.6564 6.87842 43.491 8.10429C45.3257 9.33015 46.7556 11.0725 47.6 13.1111C48.4444 15.1496 48.6653 17.3927 48.2348 19.5568C47.8044 21.7209 46.7418 23.7088 45.1816 25.269C43.6214 26.8293 41.6335 27.8918 39.4694 28.3223C37.3053 28.7527 35.0622 28.5318 33.0236 27.6874C30.9851 26.843 29.2427 25.4131 28.0169 23.5785C26.791 21.7438 26.1367 19.5869 26.1367 17.3804C26.1367 14.4215 27.3121 11.5839 29.4043 9.49171C31.4965 7.39951 34.3341 6.22412 37.2929 6.22412Z" fill="white"/>
</svg>
