<svg width="60" height="60" viewBox="0 0 60 60" fill="none" xmlns="http://www.w3.org/2000/svg">
<g clip-path="url(#clip0_351_456)">
<path d="M48.8278 11.1538C43.0705 11.1538 38.3169 15.5316 37.7197 21.133C41.8983 23.7253 44.6872 28.354 44.6872 33.6226V41.1539C44.6872 43.9013 43.4491 46.4268 41.4216 48.1094V58.2242C41.4216 59.1949 42.2086 59.982 43.1794 59.982H54.4763C55.447 59.982 56.2341 59.1949 56.2341 58.2242V40.7421C58.4207 40.0062 59.9996 37.9368 59.9996 35.5054V22.3256C59.9996 16.1656 54.9879 11.1538 48.8278 11.1538Z" fill="white"/>
<path d="M48.8282 11.1538C51.9082 11.1538 54.4141 8.64795 54.4141 5.5678C54.1334 -1.83259 43.5219 -1.83048 43.2422 5.56792C43.2422 8.64795 45.748 11.1538 48.8282 11.1538Z" fill="white"/>
<path d="M35.5857 16.8648C35.5857 13.7846 33.0799 11.2788 29.9997 11.2788C22.5993 11.5596 22.6013 22.171 29.9998 22.4508C33.0798 22.4508 35.5857 19.9449 35.5857 16.8648Z" fill="white"/>
<path d="M29.9997 22.4507C24.2424 22.4507 19.4888 26.8285 18.8916 32.4299C23.0702 35.0222 25.8591 39.6509 25.8591 44.9195V46.8022C25.8591 49.5495 24.621 52.0751 22.5934 53.7577V58.2242C22.5934 59.1949 23.3805 59.982 24.3513 59.982H35.6481C36.6189 59.982 37.4059 59.1949 37.4059 58.2242V46.3906C39.5925 45.6547 41.1715 43.5853 41.1715 41.1538V33.6225C41.1715 27.4623 36.1599 22.4507 29.9997 22.4507Z" fill="white"/>
<path d="M11.1718 33.7476C4.99066 33.7476 0 38.7506 0 44.9194V46.8021C0 49.2337 1.57898 51.3031 3.76559 52.0389V58.224C3.76559 59.1948 4.55262 59.9819 5.5234 59.9819H16.8203C17.7911 59.9819 18.5781 59.1948 18.5781 58.224V52.0389C20.7647 51.3031 22.3437 49.2337 22.3437 46.8021V44.9194C22.3438 38.7392 17.342 33.7476 11.1718 33.7476Z" fill="white"/>
<path d="M11.1719 33.7475C14.252 33.7475 16.7579 31.2417 16.7579 28.1615C16.4771 20.7612 5.86566 20.7633 5.58594 28.1617C5.58605 31.2417 8.09187 33.7475 11.1719 33.7475Z" fill="white"/>
</g>
<defs>
<clipPath id="clip0_351_456">
<rect width="60" height="60" fill="white"/>
</clipPath>
</defs>
</svg>
