<svg width="34" height="34" viewBox="0 0 34 34" fill="none" xmlns="http://www.w3.org/2000/svg">
<g clip-path="url(#clip0_981_314)">
<path d="M18.4142 8.48526C17.6332 7.70421 16.3668 7.70421 15.5858 8.48526L9.22183 14.8492C8.44076 15.6303 8.44078 16.8966 9.22183 17.6776C10.0029 18.4587 11.2692 18.4587 12.0503 17.6776L15 14.7279V24.0416C14.9999 25.1462 15.8954 26.0417 17 26.0416C18.1046 26.0417 19.0001 25.1462 19 24.0416V14.7279L21.9497 17.6776C22.7308 18.4587 23.9971 18.4587 24.7782 17.6776C25.5592 16.8966 25.5592 15.6303 24.7782 14.8492L18.4142 8.48526Z" fill="white"/>
</g>
<defs>
<clipPath id="clip0_981_314">
<rect width="24" height="24" fill="white" transform="translate(17) rotate(45)"/>
</clipPath>
</defs>
</svg>
