<svg width="46" height="46" viewBox="0 0 46 46" fill="none" xmlns="http://www.w3.org/2000/svg">
<circle cx="23" cy="23" r="23" fill="#BE1E2D"/>
<g clip-path="url(#clip0_1154_792)">
<path d="M33 17.6088C32.2934 17.9188 31.5406 18.1242 30.7556 18.2239C31.5631 17.7418 32.1794 16.9842 32.4692 16.071C31.7163 16.5199 30.8851 16.8369 29.9992 17.0139C29.2843 16.2527 28.2654 15.7812 27.1539 15.7812C24.9974 15.7812 23.2613 17.5316 23.2613 19.6774C23.2613 19.9862 23.2874 20.2831 23.3516 20.5657C20.1132 20.4077 17.2478 18.8557 15.3229 16.4914C14.9868 17.0744 14.7897 17.7418 14.7897 18.4603C14.7897 19.8092 15.4844 21.0051 16.5199 21.6974C15.8941 21.6855 15.2801 21.5038 14.76 21.2176C14.76 21.2295 14.76 21.2449 14.76 21.2604C14.76 23.1532 16.1102 24.7255 17.8807 25.0877C17.5637 25.1744 17.2181 25.2159 16.8595 25.2159C16.6101 25.2159 16.3584 25.2017 16.1221 25.1494C16.6267 26.692 18.0589 27.8261 19.7618 27.8629C18.4365 28.8996 16.7538 29.5242 14.9322 29.5242C14.6128 29.5242 14.3064 29.5099 14 29.4707C15.7254 30.5834 17.7703 31.2188 19.9755 31.2188C27.1432 31.2188 31.062 25.2812 31.062 20.1346C31.062 19.9624 31.0561 19.7962 31.0478 19.6311C31.8208 19.0825 32.4704 18.3973 33 17.6088Z" fill="white"/>
</g>
<defs>
<clipPath id="clip0_1154_792">
<rect width="19" height="19" fill="white" transform="translate(14 14)"/>
</clipPath>
</defs>
</svg>
